<?xml version="1.0" encoding="UTF-8" standalone="no"?> <!-- Created with Vectornator for iOS (http://vectornator.io/) --><!DOCTYPE svg PUBLIC "-//W3C//DTD SVG 1.1//EN" "http://www.w3.org/Graphics/SVG/1.1/DTD/svg11.dtd">
<svg style="fill-rule:nonzero;clip-rule:evenodd;stroke-linecap:round;stroke-linejoin:round;" xmlns:vectornator="http://vectornator.io" xmlns:xlink="http://www.w3.org/1999/xlink" viewBox="0 0 1024 1024" xmlns="http://www.w3.org/2000/svg" version="1.1" width="100%" height="100%" xml:space="preserve">
<metadata>
<vectornator:setting value="Pixels" key="WDUnits"/>
<vectornator:setting value="false" key="WDDisplayWhiteBackground"/>
<vectornator:setting value="true" key="VNSnapToGuides"/>
<vectornator:setting value="true" key="WDGuidesVisible"/>
<vectornator:setting key="IsTimeLapseWatermarkDisabled" value="false"/>
<vectornator:setting value="true" key="WDRulersVisible"/>
<vectornator:setting key="WDSnapToPoints" value="true"/>
<vectornator:setting value="true" key="WDSnapToGrid"/>
<vectornator:setting key="WDDynamicGuides" value="false"/>
<vectornator:setting value="false" key="WDIsolateActiveLayer"/>
<vectornator:setting value="false" key="WDSnapToEdges"/>
<vectornator:setting value="false" key="WDOutlineMode"/>
<vectornator:setting key="WDCMYKEnabledKey" value="false"/>
<vectornator:setting value="true" key="VNDimensionsVisible"/>
<vectornator:setting key="UndoHistoryDisabled" value="true"/>
</metadata>
<defs>
<linearGradient id="LinearGradient" y1="742.81" y2="985.438" x1="376.265" gradientTransform="matrix(0.13 -0.216101 0.650982 0.499901 -148.493 278.831)" x2="370.92" gradientUnits="userSpaceOnUse">
<stop offset="0" stop-color="#d75040"/>
<stop offset="0.274793" stop-color="#d75040" stop-opacity="0.950503"/>
<stop offset="0.758264" stop-color="#ffb700"/>
</linearGradient>
<linearGradient y1="742.81" y2="985.438" x1="376.265" gradientUnits="userSpaceOnUse" x2="370.92" id="LinearGradient_2" gradientTransform="matrix(0.119735 0.221953 -0.761797 0.305523 1084.59 -10.3896)">
<stop offset="0" stop-color="#4e0126"/>
<stop offset="0.243802" stop-color="#4e0126"/>
<stop offset="0.75" stop-color="#d75040"/>
</linearGradient>
</defs>
<g id="Ebene 2" visibility="hidden" vectornator:layerName="Ebene 2">
<path d="M-4.1747-2.5871L-4.1747+1024.64C43.78+1025.5+1035.68+1016.28+1038.09+1016.1L1027.68-2.5871L-4.1747-2.5871Z" opacity="1" fill="#dee0e5"/>
<g opacity="1">
<g opacity="1">
<g opacity="1">
<g opacity="1">
<path fill="#ffffff" d="M145.08+648.707C145.08+635.75+155.654+625.247+168.698+625.247C181.741+625.247+192.315+635.75+192.315+648.707C192.315+661.664+181.741+672.168+168.698+672.168C155.654+672.168+145.08+661.664+145.08+648.707Z" opacity="1"/>
<path fill="none" opacity="1" stroke-width="7" stroke="#ffffff" stroke-linecap="butt" stroke-linejoin="miter" d="M154.262+648.707C154.262+640.788+160.725+634.367+168.698+634.367C176.67+634.367+183.134+640.788+183.134+648.707C183.134+656.627+176.67+663.047+168.698+663.047C160.725+663.047+154.262+656.627+154.262+648.707Z"/>
</g>
<g opacity="1">
<path opacity="1" d="M295.297+603.694C295.297+597.216+300.583+591.965+307.104+591.965C313.625+591.965+318.911+597.216+318.911+603.694C318.911+610.172+313.625+615.423+307.104+615.423C300.583+615.423+295.297+610.172+295.297+603.694Z" fill="#ffffff"/>
<path stroke-linecap="butt" d="M304.478+603.694C304.478+602.253+305.654+601.085+307.104+601.085C308.554+601.085+309.73+602.253+309.73+603.694C309.73+605.134+308.554+606.302+307.104+606.302C305.654+606.302+304.478+605.134+304.478+603.694Z" fill="none" opacity="1" stroke-linejoin="miter" stroke-width="7" stroke="#ffffff"/>
</g>
<g opacity="1">
<path d="M203.723+492.126C203.723+485.648+209.009+480.397+215.53+480.397C222.051+480.397+227.338+485.648+227.338+492.126C227.338+498.604+222.051+503.855+215.53+503.855C209.009+503.855+203.723+498.604+203.723+492.126Z" fill="#ffffff" opacity="1"/>
<path fill="none" d="M212.904+492.126C212.904+490.685+214.08+489.518+215.53+489.518C216.98+489.518+218.156+490.685+218.156+492.126C218.156+493.567+216.98+494.735+215.53+494.735C214.08+494.735+212.904+493.567+212.904+492.126Z" stroke-width="7" stroke-linejoin="miter" opacity="1" stroke="#ffffff" stroke-linecap="butt"/>
</g>
<g opacity="1">
<path fill="#ffffff" opacity="1" d="M362.405+739.603C362.405+733.125+367.691+727.874+374.212+727.874C380.733+727.874+386.019+733.125+386.019+739.603C386.019+746.081+380.733+751.332+374.212+751.332C367.691+751.332+362.405+746.081+362.405+739.603Z"/>
<path stroke-linecap="butt" fill="none" opacity="1" d="M371.586+739.603C371.586+738.162+372.762+736.994+374.212+736.994C375.662+736.994+376.838+738.162+376.838+739.603C376.838+741.043+375.662+742.211+374.212+742.211C372.762+742.211+371.586+741.043+371.586+739.603Z" stroke-width="7" stroke="#ffffff" stroke-linejoin="miter"/>
</g>
<g opacity="1">
<path d="M423.319+521.906C423.319+508.949+433.893+498.446+446.936+498.446C459.979+498.446+470.553+508.949+470.553+521.906C470.553+534.863+459.979+545.367+446.936+545.367C433.893+545.367+423.319+534.863+423.319+521.906Z" opacity="1" fill="#ffffff"/>
<path stroke-width="7" stroke-linecap="butt" stroke="#ffffff" d="M432.5+521.906C432.5+513.986+438.963+507.566+446.936+507.566C454.909+507.566+461.372+513.986+461.372+521.906C461.372+529.826+454.909+536.246+446.936+536.246C438.963+536.246+432.5+529.826+432.5+521.906Z" opacity="1" stroke-linejoin="miter" fill="none"/>
</g>
<g opacity="1">
<path opacity="1" fill="#ffffff" d="M433.699+670.129C433.699+657.172+444.273+646.668+457.316+646.668C470.36+646.668+480.933+657.172+480.933+670.129C480.933+683.085+470.36+693.589+457.316+693.589C444.273+693.589+433.699+683.085+433.699+670.129Z"/>
<path stroke-width="7" opacity="1" stroke="#ffffff" fill="none" d="M442.88+670.129C442.88+662.209+449.344+655.789+457.316+655.789C465.289+655.789+471.752+662.209+471.752+670.129C471.752+678.048+465.289+684.468+457.316+684.468C449.344+684.468+442.88+678.048+442.88+670.129Z" stroke-linejoin="miter" stroke-linecap="butt"/>
</g>
<g opacity="1">
<path opacity="1" fill="#ffffff" d="M283.03+449.617C283.03+435.913+294.213+424.804+308.009+424.804C321.804+424.804+332.987+435.913+332.987+449.617C332.987+463.321+321.804+474.43+308.009+474.43C294.213+474.43+283.03+463.321+283.03+449.617Z"/>
<path stroke-width="7" stroke="#ffffff" stroke-linejoin="miter" d="M292.211+449.617C292.211+440.95+299.284+433.924+308.009+433.924C316.733+433.924+323.806+440.95+323.806+449.617C323.806+458.283+316.733+465.309+308.009+465.309C299.284+465.309+292.211+458.283+292.211+449.617Z" stroke-linecap="butt" opacity="1" fill="none"/>
</g>
<g opacity="1">
<path d="M100.864+542.374C100.864+529.417+111.438+518.913+124.482+518.913C137.525+518.913+148.099+529.417+148.099+542.374C148.099+555.33+137.525+565.834+124.482+565.834C111.438+565.834+100.864+555.33+100.864+542.374Z" fill="#ffffff" opacity="1"/>
<path stroke-linejoin="miter" fill="none" stroke="#ffffff" stroke-linecap="butt" d="M110.046+542.374C110.046+534.454+116.509+528.034+124.482+528.034C132.454+528.034+138.917+534.454+138.917+542.374C138.917+550.293+132.454+556.713+124.482+556.713C116.509+556.713+110.046+550.293+110.046+542.374Z" stroke-width="7" opacity="1"/>
</g>
<g opacity="1">
<g opacity="1">
<path d="M159.618+426.115C159.618+415.151+168.565+406.263+179.602+406.263C190.638+406.263+199.586+415.151+199.586+426.115C199.586+437.078+190.638+445.966+179.602+445.966C168.565+445.966+159.618+437.078+159.618+426.115Z" fill="#ffffff" opacity="1"/>
<path stroke-linejoin="miter" stroke-linecap="butt" opacity="1" fill="none" d="M162.241+426.115C162.241+416.59+170.013+408.869+179.602+408.869C189.19+408.869+196.962+416.59+196.962+426.115C196.962+435.639+189.19+443.36+179.602+443.36C170.013+443.36+162.241+435.639+162.241+426.115Z" stroke-width="2" stroke="#ffffff"/>
</g>
<g opacity="1">
<path fill="#ffffff" opacity="1" d="M165.976+425.942C165.976+418.218+172.28+411.956+180.055+411.956C187.831+411.956+194.134+418.218+194.134+425.942C194.134+433.666+187.831+439.927+180.055+439.927C172.28+439.927+165.976+433.666+165.976+425.942Z"/>
<path stroke="#ffffff" stroke-linecap="butt" opacity="1" stroke-width="7" fill="none" d="M175.158+425.942C175.158+423.255+177.35+421.076+180.055+421.076C182.76+421.076+184.953+423.255+184.953+425.942C184.953+428.629+182.76+430.807+180.055+430.807C177.35+430.807+175.158+428.629+175.158+425.942Z" stroke-linejoin="miter"/>
</g>
</g>
<g opacity="1">
<g opacity="1">
<path opacity="1" fill="#ffffff" d="M246.241+736.442C246.241+727.223+253.765+719.749+263.046+719.749C272.326+719.749+279.85+727.223+279.85+736.442C279.85+745.662+272.326+753.135+263.046+753.135C253.765+753.135+246.241+745.662+246.241+736.442Z"/>
<path stroke-width="2" stroke-linejoin="miter" d="M248.864+736.442C248.864+728.662+255.213+722.355+263.046+722.355C270.878+722.355+277.227+728.662+277.227+736.442C277.227+744.223+270.878+750.53+263.046+750.53C255.213+750.53+248.864+744.223+248.864+736.442Z" stroke="#ffffff" opacity="1" stroke-linecap="butt" fill="none"/>
</g>
<g opacity="1">
<path opacity="1" fill="#ffffff" d="M250.782+736.789C250.782+730.561+255.865+725.511+262.135+725.511C268.406+725.511+273.489+730.561+273.489+736.789C273.489+743.018+268.406+748.068+262.135+748.068C255.865+748.068+250.782+743.018+250.782+736.789Z"/>
<path stroke-linecap="butt" fill="none" stroke-linejoin="miter" stroke="#ffffff" opacity="1" d="M259.963+736.789C259.963+735.598+260.936+734.632+262.135+734.632C263.335+734.632+264.307+735.598+264.307+736.789C264.307+737.981+263.335+738.947+262.135+738.947C260.936+738.947+259.963+737.981+259.963+736.789Z" stroke-width="7"/>
</g>
</g>
<g opacity="1">
<g opacity="1">
<path d="M415.298+821.386C415.298+807.433+426.685+796.122+440.731+796.122C454.777+796.122+466.163+807.433+466.163+821.386C466.163+835.339+454.777+846.65+440.731+846.65C426.685+846.65+415.298+835.339+415.298+821.386Z" opacity="1" fill="#ffffff"/>
<path stroke-width="2" fill="none" stroke="#ffffff" stroke-linecap="butt" d="M417.921+821.386C417.921+808.872+428.133+798.728+440.731+798.728C453.328+798.728+463.54+808.872+463.54+821.386C463.54+833.9+453.328+844.044+440.731+844.044C428.133+844.044+417.921+833.9+417.921+821.386Z" opacity="1" stroke-linejoin="miter"/>
</g>
<g opacity="1">
<path opacity="1" d="M422.285+822.356C422.285+812.888+430.012+805.212+439.543+805.212C449.075+805.212+456.802+812.888+456.802+822.356C456.802+831.824+449.075+839.5+439.543+839.5C430.012+839.5+422.285+831.824+422.285+822.356Z" fill="#ffffff"/>
<path stroke-linecap="butt" opacity="1" stroke="#ffffff" stroke-linejoin="miter" stroke-width="7" fill="none" d="M431.466+822.356C431.466+817.925+435.083+814.333+439.543+814.333C444.004+814.333+447.62+817.925+447.62+822.356C447.62+826.787+444.004+830.379+439.543+830.379C435.083+830.379+431.466+826.787+431.466+822.356Z"/>
</g>
</g>
<g opacity="1">
<g opacity="1">
<path opacity="1" d="M358.16+606.105C358.16+592.152+369.546+580.841+383.592+580.841C397.638+580.841+409.025+592.152+409.025+606.105C409.025+620.057+397.638+631.368+383.592+631.368C369.546+631.368+358.16+620.057+358.16+606.105Z" fill="#ffffff"/>
<path opacity="1" d="M360.783+606.105C360.783+593.591+370.995+583.447+383.592+583.447C396.19+583.447+406.402+593.591+406.402+606.105C406.402+618.618+396.19+628.763+383.592+628.763C370.995+628.763+360.783+618.618+360.783+606.105Z" fill="none" stroke-linecap="butt" stroke-linejoin="miter" stroke="#ffffff" stroke-width="2"/>
</g>
<g opacity="1">
<path d="M365.426+606.451C365.426+596.983+373.153+589.307+382.685+589.307C392.216+589.307+399.943+596.983+399.943+606.451C399.943+615.919+392.216+623.595+382.685+623.595C373.153+623.595+365.426+615.919+365.426+606.451Z" fill="#ffffff" opacity="1"/>
<path stroke-width="7" stroke-linejoin="miter" d="M374.608+606.451C374.608+602.02+378.224+598.427+382.685+598.427C387.146+598.427+390.762+602.02+390.762+606.451C390.762+610.882+387.146+614.474+382.685+614.474C378.224+614.474+374.608+610.882+374.608+606.451Z" stroke="#ffffff" opacity="1" stroke-linecap="butt" fill="none"/>
</g>
</g>
<g opacity="1">
<g opacity="1">
<path opacity="1" fill="#ffffff" d="M81.9621+709.87C81.9621+695.917+93.3486+684.606+107.395+684.606C121.441+684.606+132.827+695.917+132.827+709.87C132.827+723.823+121.441+735.134+107.395+735.134C93.3486+735.134+81.9621+723.823+81.9621+709.87Z"/>
<path d="M84.5853+709.87C84.5853+697.356+94.7974+687.212+107.395+687.212C119.992+687.212+130.204+697.356+130.204+709.87C130.204+722.384+119.992+732.528+107.395+732.528C94.7974+732.528+84.5853+722.384+84.5853+709.87Z" stroke="#ffffff" stroke-linecap="butt" stroke-linejoin="miter" fill="none" stroke-width="2" opacity="1"/>
</g>
<g opacity="1">
<path opacity="1" d="M89.2285+710.216C89.2285+700.748+96.9554+693.072+106.487+693.072C116.019+693.072+123.745+700.748+123.745+710.216C123.745+719.684+116.019+727.36+106.487+727.36C96.9554+727.36+89.2285+719.684+89.2285+710.216Z" fill="#ffffff"/>
<path stroke-width="7" fill="none" d="M98.4099+710.216C98.4099+705.785+102.026+702.193+106.487+702.193C110.948+702.193+114.564+705.785+114.564+710.216C114.564+714.647+110.948+718.24+106.487+718.24C102.026+718.24+98.4099+714.647+98.4099+710.216Z" opacity="1" stroke-linecap="butt" stroke="#ffffff" stroke-linejoin="miter"/>
</g>
</g>
<g opacity="1">
<g opacity="1">
<path d="M536.15+598.796C536.15+584.843+547.536+573.533+561.582+573.533C575.628+573.533+587.015+584.843+587.015+598.796C587.015+612.749+575.628+624.06+561.582+624.06C547.536+624.06+536.15+612.749+536.15+598.796Z" fill="#ffffff" opacity="1"/>
<path stroke-linejoin="miter" stroke="#ffffff" stroke-width="2" opacity="1" stroke-linecap="butt" fill="none" d="M538.773+598.796C538.773+586.283+548.985+576.138+561.582+576.138C574.179+576.138+584.392+586.283+584.392+598.796C584.392+611.31+574.179+621.454+561.582+621.454C548.985+621.454+538.773+611.31+538.773+598.796Z"/>
</g>
<g opacity="1">
<path fill="#ffffff" d="M543.416+599.142C543.416+589.674+551.143+581.999+560.675+581.999C570.206+581.999+577.933+589.674+577.933+599.142C577.933+608.611+570.206+616.286+560.675+616.286C551.143+616.286+543.416+608.611+543.416+599.142Z" opacity="1"/>
<path stroke-linecap="butt" d="M552.598+599.142C552.598+594.711+556.214+591.119+560.675+591.119C565.135+591.119+568.752+594.711+568.752+599.142C568.752+603.574+565.135+607.166+560.675+607.166C556.214+607.166+552.598+603.574+552.598+599.142Z" stroke="#ffffff" fill="none" opacity="1" stroke-width="7" stroke-linejoin="miter"/>
</g>
</g>
<g opacity="1">
<g opacity="1">
<path opacity="1" d="M49.4759+613.74C49.4759+603.773+57.6091+595.694+67.642+595.694C77.6749+595.694+85.8081+603.773+85.8081+613.74C85.8081+623.706+77.6749+631.785+67.642+631.785C57.6091+631.785+49.4759+623.706+49.4759+613.74Z" fill="#ffffff"/>
<path stroke-width="2" stroke-linecap="butt" fill="none" opacity="1" d="M52.0992+613.74C52.0992+605.213+59.0579+598.3+67.642+598.3C76.2261+598.3+83.1848+605.213+83.1848+613.74C83.1848+622.267+76.2261+629.179+67.642+629.179C59.0579+629.179+52.0992+622.267+52.0992+613.74Z" stroke="#ffffff" stroke-linejoin="miter"/>
</g>
<g opacity="1">
<path fill="#ffffff" opacity="1" d="M54.9271+613.739C54.9271+606.762+60.6209+601.106+67.6446+601.106C74.6684+601.106+80.3622+606.762+80.3622+613.739C80.3622+620.716+74.6684+626.372+67.6446+626.372C60.6209+626.372+54.9271+620.716+54.9271+613.739Z"/>
<path stroke-width="7" d="M64.1085+613.739C64.1085+611.799+65.6917+610.226+67.6446+610.226C69.5976+610.226+71.1808+611.799+71.1808+613.739C71.1808+615.679+69.5976+617.251+67.6446+617.251C65.6917+617.251+64.1085+615.679+64.1085+613.739Z" stroke="#ffffff" stroke-linecap="butt" stroke-linejoin="miter" fill="none" opacity="1"/>
</g>
</g>
<g opacity="1">
<path opacity="1" d="M251.403+535.705C251.403+524.992+260.146+516.307+270.931+516.307C281.715+516.307+290.458+524.992+290.458+535.705C290.458+546.418+281.715+555.103+270.931+555.103C260.146+555.103+251.403+546.418+251.403+535.705Z" fill="#ffffff"/>
<path stroke="#ffffff" fill="none" opacity="1" stroke-width="7" d="M260.585+535.705C260.585+530.029+265.217+525.428+270.931+525.428C276.645+525.428+281.277+530.029+281.277+535.705C281.277+541.381+276.645+545.983+270.931+545.983C265.217+545.983+260.585+541.381+260.585+535.705Z" stroke-linejoin="miter" stroke-linecap="butt"/>
</g>
<g opacity="1">
<path d="M290.692+805.932C290.692+795.219+299.434+786.534+310.219+786.534C321.004+786.534+329.747+795.219+329.747+805.932C329.747+816.645+321.004+825.33+310.219+825.33C299.434+825.33+290.692+816.645+290.692+805.932Z" opacity="1" fill="#ffffff"/>
<path stroke="#ffffff" fill="none" stroke-width="7" opacity="1" d="M299.873+805.932C299.873+800.256+304.505+795.655+310.219+795.655C315.933+795.655+320.565+800.256+320.565+805.932C320.565+811.608+315.933+816.21+310.219+816.21C304.505+816.21+299.873+811.608+299.873+805.932Z" stroke-linejoin="miter" stroke-linecap="butt"/>
</g>
<g opacity="1">
<path opacity="1" fill="#ffffff" d="M232.454+668.711C232.454+657.998+241.197+649.313+251.981+649.313C262.766+649.313+271.509+657.998+271.509+668.711C271.509+679.424+262.766+688.109+251.981+688.109C241.197+688.109+232.454+679.424+232.454+668.711Z"/>
<path stroke-linejoin="miter" opacity="1" stroke-width="7" fill="none" d="M241.635+668.711C241.635+663.035+246.267+658.434+251.981+658.434C257.695+658.434+262.328+663.035+262.328+668.711C262.328+674.387+257.695+678.989+251.981+678.989C246.267+678.989+241.635+674.387+241.635+668.711Z" stroke-linecap="butt" stroke="#ffffff"/>
</g>
<g opacity="1">
<path fill="#ffffff" d="M468.814+599.471C468.814+592.744+474.303+587.291+481.075+587.291C487.847+587.291+493.336+592.744+493.336+599.471C493.336+606.198+487.847+611.651+481.075+611.651C474.303+611.651+468.814+606.198+468.814+599.471Z" opacity="1"/>
<path stroke-linejoin="miter" stroke="#ffffff" stroke-width="7" opacity="1" stroke-linecap="butt" fill="none" d="M477.995+599.471C477.995+597.782+479.374+596.412+481.075+596.412C482.776+596.412+484.155+597.782+484.155+599.471C484.155+601.161+482.776+602.53+481.075+602.53C479.374+602.53+477.995+601.161+477.995+599.471Z"/>
</g>
<g opacity="1">
<path d="M483.947+743.984C483.947+737.506+489.233+732.255+495.754+732.255C502.275+732.255+507.561+737.506+507.561+743.984C507.561+750.462+502.275+755.713+495.754+755.713C489.233+755.713+483.947+750.462+483.947+743.984Z" fill="#ffffff" opacity="1"/>
<path stroke-linecap="butt" fill="none" opacity="1" stroke-width="7" d="M493.128+743.984C493.128+742.543+494.304+741.375+495.754+741.375C497.204+741.375+498.38+742.543+498.38+743.984C498.38+745.424+497.204+746.592+495.754+746.592C494.304+746.592+493.128+745.424+493.128+743.984Z" stroke="#ffffff" stroke-linejoin="miter"/>
</g>
<g opacity="1">
<path d="M119.5+461.611C119.5+455.133+124.786+449.882+131.307+449.882C137.828+449.882+143.115+455.133+143.115+461.611C143.115+468.089+137.828+473.34+131.307+473.34C124.786+473.34+119.5+468.089+119.5+461.611Z" opacity="1" fill="#ffffff"/>
<path stroke-linejoin="miter" stroke="#ffffff" opacity="1" stroke-width="7" fill="none" stroke-linecap="butt" d="M128.681+461.611C128.681+460.17+129.857+459.002+131.307+459.002C132.758+459.002+133.933+460.17+133.933+461.611C133.933+463.051+132.758+464.219+131.307+464.219C129.857+464.219+128.681+463.051+128.681+461.611Z"/>
</g>
<g opacity="1">
<g opacity="1">
<path d="M354.701+450.767C354.701+441.548+362.225+434.074+371.506+434.074C380.787+434.074+388.31+441.548+388.31+450.767C388.31+459.986+380.787+467.46+371.506+467.46C362.225+467.46+354.701+459.986+354.701+450.767Z" opacity="1" fill="#ffffff"/>
<path d="M357.324+450.767C357.324+442.987+363.673+436.68+371.506+436.68C379.338+436.68+385.687+442.987+385.687+450.767C385.687+458.547+379.338+464.854+371.506+464.854C363.673+464.854+357.324+458.547+357.324+450.767Z" opacity="1" stroke-linejoin="miter" stroke="#ffffff" stroke-width="2" fill="none" stroke-linecap="butt"/>
</g>
<g opacity="1">
<path d="M359.244+451.113C359.244+444.884+364.328+439.835+370.598+439.835C376.868+439.835+381.951+444.884+381.951+451.113C381.951+457.342+376.868+462.391+370.598+462.391C364.328+462.391+359.244+457.342+359.244+451.113Z" opacity="1" fill="#ffffff"/>
<path opacity="1" stroke-width="7" stroke-linejoin="miter" stroke-linecap="butt" d="M368.426+451.113C368.426+449.922+369.398+448.956+370.598+448.956C371.798+448.956+372.77+449.922+372.77+451.113C372.77+452.305+371.798+453.271+370.598+453.271C369.398+453.271+368.426+452.305+368.426+451.113Z" stroke="#ffffff" fill="none"/>
</g>
</g>
<g opacity="1">
<path d="M329.364+532.55C329.364+525.824+334.853+520.371+341.625+520.371C348.396+520.371+353.886+525.824+353.886+532.55C353.886+539.277+348.396+544.73+341.625+544.73C334.853+544.73+329.364+539.277+329.364+532.55Z" fill="#ffffff" opacity="1"/>
<path stroke="#ffffff" opacity="1" d="M338.545+532.55C338.545+530.861+339.924+529.491+341.625+529.491C343.326+529.491+344.704+530.861+344.704+532.55C344.704+534.24+343.326+535.61+341.625+535.61C339.924+535.61+338.545+534.24+338.545+532.55Z" fill="none" stroke-linecap="butt" stroke-linejoin="miter" stroke-width="7"/>
</g>
</g>
<g opacity="1">
<path fill="none" stroke-linecap="butt" stroke-width="1" stroke-linejoin="miter" d="M77.8855+603.987L116.465+554.814" opacity="1" stroke="#ffffff"/>
<path fill="none" d="M132.154+466.762L130.82+526.247" stroke-width="1" stroke-linejoin="miter" opacity="1" stroke-linecap="butt" stroke="#ffffff"/>
<path stroke-linecap="butt" d="M210.767+494.34L136.756+540.681" opacity="1" stroke="#ffffff" stroke-width="1" fill="none" stroke-linejoin="miter"/>
<path stroke-linecap="butt" stroke-width="1" opacity="1" fill="none" stroke-linejoin="miter" stroke="#ffffff" d="M214.223+486.628L188.172+438.651"/>
<path fill="none" stroke-width="1" stroke-linecap="butt" opacity="1" d="M273.928+540.248L218.629+495.253" stroke="#ffffff" stroke-linejoin="miter"/>
<path stroke-width="1" stroke-linecap="butt" fill="none" stroke-linejoin="miter" d="M301.555+449.774L221.03+487.585" opacity="1" stroke="#ffffff"/>
<path opacity="1" stroke-linecap="butt" stroke-linejoin="miter" d="M165.643+651.53L129.32+549.204" fill="none" stroke="#ffffff" stroke-width="1"/>
<path d="M120.112+696.601L165.642+651.528" stroke-linecap="butt" stroke="#ffffff" fill="none" stroke-linejoin="miter" opacity="1" stroke-width="1"/>
<path stroke-linejoin="miter" stroke-linecap="butt" stroke="#ffffff" fill="none" d="M254.567+668.781L165.641+651.529" stroke-width="1" opacity="1"/>
<path opacity="1" stroke-linecap="butt" fill="none" stroke-linejoin="miter" d="M254.569+668.78L261.916+723.89" stroke="#ffffff" stroke-width="1"/>
<path stroke-linecap="butt" stroke-width="1" opacity="1" stroke-linejoin="miter" fill="#ffffff" stroke="#ffffff" d="M167.922+649.332L267.681+538.06"/>
<path opacity="1" d="M254.569+668.78L308.981+605.043" fill="none" stroke="#ffffff" stroke-width="1" stroke-linecap="butt" stroke-linejoin="miter"/>
<path stroke-linecap="butt" opacity="1" stroke-width="1" d="M308.981+605.043L273.928+540.248" stroke="#ffffff" stroke-linejoin="miter" fill="none"/>
<path stroke-linejoin="miter" stroke="#ffffff" opacity="1" stroke-width="1" stroke-linecap="butt" fill="none" d="M133.738+539.346L273.93+540.247"/>
<path stroke-linejoin="miter" fill="none" opacity="1" stroke-width="1" d="M273.928+540.248L310.995+457.545" stroke-linecap="butt" stroke="#ffffff"/>
<path stroke-linecap="butt" stroke-width="1" stroke-linejoin="miter" fill="none" stroke="#ffffff" d="M443.088+527.26L308.981+605.043" opacity="1"/>
<path stroke="#ffffff" opacity="1" d="M368.998+618.751L254.569+668.78" stroke-width="1" stroke-linejoin="miter" fill="none" stroke-linecap="butt"/>
<path fill="none" stroke-linecap="butt" stroke="#ffffff" stroke-linejoin="miter" stroke-width="1" d="M371.844+738.106L254.568+668.782" opacity="1"/>
<path stroke="#ffffff" d="M310.623+805.506L370.118+741.964" stroke-linecap="butt" fill="none" stroke-width="1" opacity="1" stroke-linejoin="miter"/>
<path stroke-linejoin="miter" stroke-width="1" opacity="1" fill="none" stroke="#ffffff" stroke-linecap="butt" d="M310.623+805.506L370.118+741.964"/>
<path opacity="1" stroke-linecap="butt" fill="none" stroke="#ffffff" stroke-linejoin="miter" stroke-width="1" d="M428.662+807.391L375.728+739.822"/>
<path stroke-width="1" stroke-linecap="butt" d="M495.877+741.617L456.081+670.103" opacity="1" stroke="#ffffff" stroke-linejoin="miter" fill="none"/>
<path stroke-linejoin="miter" d="M450.043+667.43L398.296+616.816" opacity="1" stroke-width="1" stroke="#ffffff" fill="none" stroke-linecap="butt"/>
<path stroke-linecap="butt" opacity="1" fill="none" stroke-width="1" d="M375.727+739.823L380.261+624.761" stroke-linejoin="miter" stroke="#ffffff"/>
<path stroke="#ffffff" fill="none" opacity="1" stroke-width="1" d="M478.999+597.058L402.041+606.151" stroke-linejoin="miter" stroke-linecap="butt"/>
<path opacity="1" d="M364.116+608.89L305.531+603.516" fill="none" stroke-linejoin="miter" stroke-linecap="butt" stroke="#ffffff" stroke-width="1"/>
<path fill="none" d="M478.999+597.056L541.71+600.144" stroke-linecap="butt" stroke="#ffffff" stroke-linejoin="miter" opacity="1" stroke-width="1"/>
<path stroke="#ffffff" stroke-linecap="butt" stroke-linejoin="miter" stroke-width="1" d="M447.313+517.834L345.091+531.484" opacity="1" fill="none"/>
<path stroke-width="1" stroke="#ffffff" d="M449.851+522.55L481.158+598.01" opacity="1" stroke-linejoin="miter" fill="none" stroke-linecap="butt"/>
<path opacity="1" d="M449.851+522.55L380.612+459.066" stroke="#ffffff" stroke-width="1" stroke-linecap="butt" stroke-linejoin="miter" fill="none"/>
<path stroke-linejoin="miter" fill="none" stroke-linecap="butt" opacity="1" stroke-width="1" stroke="#ffffff" d="M375.727+739.823L451.669+670.718"/>
<path fill="none" stroke-width="1" opacity="1" stroke="#ffffff" stroke-linecap="butt" stroke-linejoin="miter" d="M457.618+666.674L482.017+603.012"/>
<path stroke-width="1" stroke-linejoin="miter" d="M254.569+668.78L267.697+538.004" stroke-linecap="butt" opacity="1" fill="none" stroke="#ffffff"/>
<path stroke="#ffffff" stroke-linejoin="miter" opacity="1" stroke-linecap="butt" stroke-width="1" d="M394.859+592.192L452.438+523.694" fill="none"/>
<path stroke-linecap="butt" fill="none" d="M377.512+440.491L421.198+371.172" stroke-width="1" stroke="#ffffff" stroke-linejoin="miter" opacity="1"/>
<path stroke-width="1" stroke-linejoin="miter" stroke-linecap="butt" stroke="#ffffff" opacity="1" fill="#ffffff" d="M318.487+451.326L359.491+449.545"/>
<path opacity="1" stroke="#ffffff" stroke-linejoin="miter" stroke-width="1" d="M363.717+442.286L271.519+378.258" stroke-linecap="butt" fill="none"/>
<path d="M449.851+522.55L556.389+524.62" stroke-width="1" stroke="#ffffff" fill="none" stroke-linecap="butt" stroke-linejoin="miter" opacity="1"/>
<path stroke-width="1" fill="#ffffff" stroke="#ffffff" stroke-linejoin="miter" stroke-linecap="butt" opacity="1" d="M271.767+540.284L338.501+531.1"/>
<path opacity="1" stroke-linejoin="miter" fill="none" stroke-linecap="butt" stroke="#ffffff" stroke-width="1" d="M377.512+440.491L421.198+371.172"/>
<path stroke-linejoin="miter" stroke-linecap="butt" d="M341.406+531.112L310.386+604.644" stroke-width="1" opacity="1" stroke="#ffffff" fill="none"/>
<path stroke-linecap="butt" opacity="1" stroke-width="1" d="M367.231+461.905L345.091+531.484" stroke="#ffffff" fill="none" stroke-linejoin="miter"/>
<path stroke-linecap="butt" fill="#ffffff" d="M313.486+452.454L338.504+531.099" stroke-linejoin="miter" stroke="#ffffff" opacity="1" stroke-width="1"/>
</g>
</g>
<g opacity="1">
<g opacity="1">
<g opacity="1">
<path opacity="1" d="M618.107+908.835C618.107+896.421+628.238+886.357+640.735+886.357C653.232+886.357+663.362+896.421+663.362+908.835C663.362+921.248+653.232+931.312+640.735+931.312C628.238+931.312+618.107+921.248+618.107+908.835Z" fill="#ffffff"/>
<path d="M625.75+908.835C625.75+900.614+632.459+893.95+640.735+893.95C649.011+893.95+655.719+900.614+655.719+908.835C655.719+917.055+649.011+923.72+640.735+923.72C632.459+923.72+625.75+917.055+625.75+908.835Z" fill="none" opacity="1" stroke="#ffffff" stroke-linecap="butt" stroke-linejoin="miter" stroke-width="7"/>
</g>
<g opacity="1">
<path d="M741.161+785.068C741.161+778.861+746.226+773.829+752.475+773.829C758.723+773.829+763.788+778.861+763.788+785.068C763.788+791.274+758.723+796.306+752.475+796.306C746.226+796.306+741.161+791.274+741.161+785.068Z" fill="#ffffff" opacity="1"/>
<path stroke-linejoin="miter" fill="none" stroke-width="7" stroke-linecap="butt" d="M748.804+785.068C748.804+783.054+750.447+781.421+752.475+781.421C754.502+781.421+756.145+783.054+756.145+785.068C756.145+787.081+754.502+788.714+752.475+788.714C750.447+788.714+748.804+787.081+748.804+785.068Z" opacity="1" stroke="#ffffff"/>
</g>
<g opacity="1">
<path d="M585.451+726.322C585.451+720.115+590.516+715.083+596.764+715.083C603.013+715.083+608.078+720.115+608.078+726.322C608.078+732.529+603.013+737.56+596.764+737.56C590.516+737.56+585.451+732.529+585.451+726.322Z" fill="#ffffff" opacity="1"/>
<path stroke-width="7" d="M593.094+726.322C593.094+724.308+594.737+722.675+596.764+722.675C598.792+722.675+600.435+724.308+600.435+726.322C600.435+728.335+598.792+729.968+596.764+729.968C594.737+729.968+593.094+728.335+593.094+726.322Z" stroke-linejoin="miter" fill="none" stroke="#ffffff" opacity="1" stroke-linecap="butt"/>
</g>
<g opacity="1">
<path fill="#ffffff" d="M886.596+881.994C886.596+875.787+891.661+870.755+897.91+870.755C904.158+870.755+909.224+875.787+909.224+881.994C909.224+888.201+904.158+893.232+897.91+893.232C891.661+893.232+886.596+888.201+886.596+881.994Z" opacity="1"/>
<path stroke="#ffffff" stroke-width="7" stroke-linecap="butt" stroke-linejoin="miter" fill="none" d="M894.239+881.994C894.239+879.98+895.883+878.347+897.91+878.347C899.937+878.347+901.581+879.98+901.581+881.994C901.581+884.008+899.937+885.64+897.91+885.64C895.883+885.64+894.239+884.008+894.239+881.994Z" opacity="1"/>
</g>
<g opacity="1">
<path opacity="1" fill="#ffffff" d="M780.065+722.826C780.065+715.39+786.134+709.362+793.619+709.362C801.105+709.362+807.174+715.39+807.174+722.826C807.174+730.262+801.105+736.29+793.619+736.29C786.134+736.29+780.065+730.262+780.065+722.826Z"/>
<path fill="none" stroke-linejoin="miter" stroke="#ffffff" stroke-linecap="butt" opacity="1" stroke-width="7" d="M787.708+722.826C787.708+719.583+790.355+716.954+793.619+716.954C796.884+716.954+799.531+719.583+799.531+722.826C799.531+726.069+796.884+728.698+793.619+728.698C790.355+728.698+787.708+726.069+787.708+722.826Z"/>
</g>
<g opacity="1">
<path d="M917.706+765.454C917.706+753.04+927.837+742.977+940.334+742.977C952.831+742.977+962.961+753.04+962.961+765.454C962.961+777.868+952.831+787.931+940.334+787.931C927.837+787.931+917.706+777.868+917.706+765.454Z" fill="#ffffff" opacity="1"/>
<path stroke-width="7" opacity="1" stroke="#ffffff" stroke-linecap="butt" stroke-linejoin="miter" d="M925.349+765.454C925.349+757.233+932.058+750.569+940.334+750.569C948.61+750.569+955.318+757.233+955.318+765.454C955.318+773.675+948.61+780.339+940.334+780.339C932.058+780.339+925.349+773.675+925.349+765.454Z" fill="none"/>
</g>
<g opacity="1">
<path d="M644.765+630.689C644.765+618.276+654.896+608.212+667.393+608.212C679.889+608.212+690.02+618.276+690.02+630.689C690.02+643.103+679.889+653.167+667.393+653.167C654.896+653.167+644.765+643.103+644.765+630.689Z" fill="#ffffff" opacity="1"/>
<path stroke-linejoin="miter" opacity="1" d="M652.408+630.689C652.408+622.469+659.117+615.804+667.393+615.804C675.668+615.804+682.377+622.469+682.377+630.689C682.377+638.91+675.668+645.575+667.393+645.575C659.117+645.575+652.408+638.91+652.408+630.689Z" stroke="#ffffff" stroke-linecap="butt" stroke-width="7" fill="none"/>
</g>
<g opacity="1">
<path opacity="1" d="M512.605+828.275C512.605+815.862+522.735+805.798+535.232+805.798C547.729+805.798+557.86+815.862+557.86+828.275C557.86+840.689+547.729+850.753+535.232+850.753C522.735+850.753+512.605+840.689+512.605+828.275Z" fill="#ffffff"/>
<path stroke-width="7" opacity="1" fill="none" stroke-linejoin="miter" stroke-linecap="butt" d="M520.248+828.275C520.248+820.055+526.956+813.39+535.232+813.39C543.508+813.39+550.217+820.055+550.217+828.275C550.217+836.496+543.508+843.161+535.232+843.161C526.956+843.161+520.248+836.496+520.248+828.275Z" stroke="#ffffff"/>
</g>
<g opacity="1">
<g opacity="1">
<path d="M769.301+942.192C769.301+933.359+776.51+926.198+785.402+926.198C794.294+926.198+801.502+933.359+801.502+942.192C801.502+951.025+794.294+958.185+785.402+958.185C776.51+958.185+769.301+951.025+769.301+942.192Z" opacity="1" fill="#ffffff"/>
<path opacity="1" stroke="#ffffff" d="M771.485+942.192C771.485+934.557+777.716+928.367+785.402+928.367C793.088+928.367+799.318+934.557+799.318+942.192C799.318+949.827+793.088+956.016+785.402+956.016C777.716+956.016+771.485+949.827+771.485+942.192Z" fill="none" stroke-linecap="butt" stroke-width="2" stroke-linejoin="miter"/>
</g>
<g opacity="1">
<path d="M773.819+943.055C773.819+937.087+778.69+932.248+784.698+932.248C790.706+932.248+795.577+937.087+795.577+943.055C795.577+949.024+790.706+953.862+784.698+953.862C778.69+953.862+773.819+949.024+773.819+943.055Z" opacity="1" fill="#ffffff"/>
<path stroke="#ffffff" d="M781.462+943.055C781.462+941.28+782.911+939.84+784.698+939.84C786.485+939.84+787.934+941.28+787.934+943.055C787.934+944.831+786.485+946.27+784.698+946.27C782.911+946.27+781.462+944.831+781.462+943.055Z" fill="none" stroke-width="7" opacity="1" stroke-linecap="butt" stroke-linejoin="miter"/>
</g>
</g>
<g opacity="1">
<g opacity="1">
<path fill="#ffffff" d="M987.022+925.321C987.022+911.952+997.932+901.115+1011.39+901.115C1024.85+901.115+1035.76+911.952+1035.76+925.321C1035.76+938.69+1024.85+949.527+1011.39+949.527C997.932+949.527+987.022+938.69+987.022+925.321Z" opacity="1"/>
<path stroke-linejoin="miter" stroke="#ffffff" stroke-linecap="butt" stroke-width="2" opacity="1" fill="none" d="M989.206+925.321C989.206+913.15+999.138+903.284+1011.39+903.284C1023.64+903.284+1033.57+913.15+1033.57+925.321C1033.57+937.492+1023.64+947.358+1011.39+947.358C999.138+947.358+989.206+937.492+989.206+925.321Z"/>
</g>
<g opacity="1">
<path opacity="1" fill="#ffffff" d="M994.232+926.968C994.232+917.896+1001.64+910.542+1010.77+910.542C1019.9+910.542+1027.3+917.896+1027.3+926.968C1027.3+936.039+1019.9+943.393+1010.77+943.393C1001.64+943.393+994.232+936.039+994.232+926.968Z"/>
<path stroke-linejoin="miter" fill="none" opacity="1" d="M1001.88+926.968C1001.88+922.089+1005.86+918.135+1010.77+918.135C1015.68+918.135+1019.66+922.089+1019.66+926.968C1019.66+931.846+1015.68+935.801+1010.77+935.801C1005.86+935.801+1001.88+931.846+1001.88+926.968Z" stroke="#ffffff" stroke-width="7" stroke-linecap="butt"/>
</g>
</g>
<g opacity="1">
<g opacity="1">
<path fill="#ffffff" opacity="1" d="M590.831+1004.65C590.831+991.28+601.741+980.443+615.199+980.443C628.657+980.443+639.567+991.28+639.567+1004.65C639.567+1018.02+628.657+1028.85+615.199+1028.85C601.741+1028.85+590.831+1018.02+590.831+1004.65Z"/>
<path stroke-linecap="butt" fill="none" stroke="#ffffff" stroke-width="2" opacity="1" d="M593.015+1004.65C593.015+992.478+602.947+982.612+615.199+982.612C627.451+982.612+637.383+992.478+637.383+1004.65C637.383+1016.82+627.451+1026.69+615.199+1026.69C602.947+1026.69+593.015+1016.82+593.015+1004.65Z" stroke-linejoin="miter"/>
</g>
<g opacity="1">
<path opacity="1" fill="#ffffff" d="M597.959+1005.51C597.959+996.443+605.362+989.089+614.494+989.089C623.626+989.089+631.029+996.443+631.029+1005.51C631.029+1014.59+623.626+1021.94+614.494+1021.94C605.362+1021.94+597.959+1014.59+597.959+1005.51Z"/>
<path opacity="1" stroke="#ffffff" stroke-width="7" stroke-linejoin="miter" fill="none" stroke-linecap="butt" d="M605.602+1005.51C605.602+1000.64+609.583+996.681+614.494+996.681C619.405+996.681+623.386+1000.64+623.386+1005.51C623.386+1010.39+619.405+1014.35+614.494+1014.35C609.583+1014.35+605.602+1010.39+605.602+1005.51Z"/>
</g>
</g>
<g opacity="1">
<g opacity="1">
<path d="M502.498+931.721C502.498+922.172+510.29+914.432+519.902+914.432C529.514+914.432+537.306+922.172+537.306+931.721C537.306+941.269+529.514+949.009+519.902+949.009C510.29+949.009+502.498+941.269+502.498+931.721Z" opacity="1" fill="#ffffff"/>
<path d="M504.681+931.721C504.681+923.37+511.496+916.601+519.902+916.601C528.308+916.601+535.122+923.37+535.122+931.721C535.122+940.071+528.308+946.84+519.902+946.84C511.496+946.84+504.681+940.071+504.681+931.721Z" stroke-width="2" fill="none" stroke-linecap="butt" stroke="#ffffff" opacity="1" stroke-linejoin="miter"/>
</g>
<g opacity="1">
<path d="M507.719+931.721C507.719+925.037+513.173+919.619+519.902+919.619C526.63+919.619+532.085+925.037+532.085+931.721C532.085+938.404+526.63+943.823+519.902+943.823C513.173+943.823+507.719+938.404+507.719+931.721Z" opacity="1" fill="#ffffff"/>
<path opacity="1" stroke-width="7" d="M515.362+931.721C515.362+929.23+517.394+927.211+519.902+927.211C522.409+927.211+524.442+929.23+524.442+931.721C524.442+934.211+522.409+936.23+519.902+936.23C517.394+936.23+515.362+934.211+515.362+931.721Z" stroke-linejoin="miter" fill="none" stroke-linecap="butt" stroke="#ffffff"/>
</g>
</g>
<g opacity="1">
<path fill="#ffffff" opacity="1" d="M658.42+738.066C658.42+727.802+666.796+719.481+677.13+719.481C687.463+719.481+695.84+727.802+695.84+738.066C695.84+748.331+687.463+756.652+677.13+756.652C666.796+756.652+658.42+748.331+658.42+738.066Z"/>
<path opacity="1" stroke-linecap="butt" stroke-width="7" fill="none" d="M666.063+738.066C666.063+731.995+671.017+727.073+677.13+727.073C683.242+727.073+688.197+731.995+688.197+738.066C688.197+744.138+683.242+749.06+677.13+749.06C671.017+749.06+666.063+744.138+666.063+738.066Z" stroke="#ffffff" stroke-linejoin="miter"/>
</g>
<g opacity="1">
<path opacity="1" d="M853.861+984.501C853.861+974.237+862.238+965.916+872.571+965.916C882.904+965.916+891.281+974.237+891.281+984.501C891.281+994.766+882.904+1003.09+872.571+1003.09C862.238+1003.09+853.861+994.766+853.861+984.501Z" fill="#ffffff"/>
<path fill="none" d="M861.504+984.501C861.504+978.43+866.459+973.508+872.571+973.508C878.683+973.508+883.638+978.43+883.638+984.501C883.638+990.573+878.683+995.495+872.571+995.495C866.459+995.495+861.504+990.573+861.504+984.501Z" stroke-linecap="butt" stroke-width="7" stroke-linejoin="miter" opacity="1" stroke="#ffffff"/>
</g>
<g opacity="1">
<path d="M716.503+881.212C716.503+870.948+724.88+862.627+735.213+862.627C745.546+862.627+753.923+870.948+753.923+881.212C753.923+891.477+745.546+899.798+735.213+899.798C724.88+899.798+716.503+891.477+716.503+881.212Z" opacity="1" fill="#ffffff"/>
<path stroke-linejoin="miter" stroke="#ffffff" fill="none" stroke-linecap="butt" opacity="1" stroke-width="7" d="M724.146+881.212C724.146+875.141+729.101+870.219+735.213+870.219C741.325+870.219+746.28+875.141+746.28+881.212C746.28+887.284+741.325+892.206+735.213+892.206C729.101+892.206+724.146+887.284+724.146+881.212Z"/>
</g>
<g opacity="1">
<path opacity="1" fill="#ffffff" d="M1010.11+816.989C1010.11+810.782+1015.18+805.75+1021.42+805.75C1027.67+805.75+1032.74+810.782+1032.74+816.989C1032.74+823.196+1027.67+828.228+1021.42+828.228C1015.18+828.228+1010.11+823.196+1010.11+816.989Z"/>
<path stroke-width="7" stroke="#ffffff" d="M1017.75+816.989C1017.75+814.975+1019.4+813.343+1021.42+813.343C1023.45+813.343+1025.1+814.975+1025.1+816.989C1025.1+819.003+1023.45+820.635+1021.42+820.635C1019.4+820.635+1017.75+819.003+1017.75+816.989Z" stroke-linecap="butt" opacity="1" fill="none" stroke-linejoin="miter"/>
</g>
<g opacity="1">
<path d="M483.953+744.023C483.953+737.816+489.019+732.785+495.267+732.785C501.516+732.785+506.581+737.816+506.581+744.023C506.581+750.23+501.516+755.262+495.267+755.262C489.019+755.262+483.953+750.23+483.953+744.023Z" opacity="1" fill="#ffffff"/>
<path d="M491.596+744.023C491.596+742.009+493.24+740.377+495.267+740.377C497.295+740.377+498.938+742.009+498.938+744.023C498.938+746.037+497.295+747.67+495.267+747.67C493.24+747.67+491.596+746.037+491.596+744.023Z" stroke="#ffffff" stroke-linecap="butt" stroke-linejoin="miter" opacity="1" stroke-width="7" fill="none"/>
</g>
<g opacity="1">
<g opacity="1">
<path fill="#ffffff" opacity="1" d="M804.359+668.931C804.359+660.098+811.568+652.937+820.46+652.937C829.352+652.937+836.56+660.098+836.56+668.931C836.56+677.764+829.352+684.924+820.46+684.924C811.568+684.924+804.359+677.764+804.359+668.931Z"/>
<path stroke-linejoin="miter" opacity="1" stroke-width="2" stroke-linecap="butt" fill="none" stroke="#ffffff" d="M806.543+668.931C806.543+661.296+812.774+655.107+820.46+655.107C828.146+655.107+834.376+661.296+834.376+668.931C834.376+676.566+828.146+682.755+820.46+682.755C812.774+682.755+806.543+676.566+806.543+668.931Z"/>
</g>
<g opacity="1">
<path opacity="1" d="M808.877+669.794C808.877+663.826+813.747+658.987+819.756+658.987C825.764+658.987+830.635+663.826+830.635+669.794C830.635+675.763+825.764+680.601+819.756+680.601C813.747+680.601+808.877+675.763+808.877+669.794Z" fill="#ffffff"/>
<path fill="none" opacity="1" d="M816.52+669.794C816.52+668.019+817.969+666.579+819.756+666.579C821.543+666.579+822.992+668.019+822.992+669.794C822.992+671.57+821.543+673.009+819.756+673.009C817.969+673.009+816.52+671.57+816.52+669.794Z" stroke-width="7" stroke="#ffffff" stroke-linecap="butt" stroke-linejoin="miter"/>
</g>
</g>
</g>
<g opacity="1">
<path d="M524.47+916.208L534.437+845.14" stroke-linecap="butt" fill="none" stroke="#ffffff" opacity="1" stroke-linejoin="miter" stroke-width="1"/>
<path fill="#ffffff" d="M499.09+748.639L532.215+808.687" stroke="#ffffff" stroke-width="1" stroke-linecap="butt" opacity="1" stroke-linejoin="miter"/>
<path stroke="#ffffff" stroke-width="1" d="M593.423+731.183L546.5+819.681" fill="none" stroke-linecap="butt" stroke-linejoin="miter" opacity="1"/>
<path fill="none" stroke-linecap="butt" stroke="#ffffff" stroke-linejoin="miter" d="M592.414+721.648L493.976+742.074" opacity="1" stroke-width="1"/>
<path stroke-linejoin="miter" opacity="1" d="M682.817+740.898L601.631+727.661" stroke-width="1" stroke="#ffffff" fill="none" stroke-linecap="butt"/>
<path d="M657.972+635.142L599.613+718.864" stroke-linejoin="miter" stroke="#ffffff" stroke-width="1" fill="none" opacity="1" stroke-linecap="butt"/>
<path fill="none" opacity="1" d="M639.482+913.425L543.998+832.195" stroke-width="1" stroke="#ffffff" stroke-linecap="butt" stroke-linejoin="miter"/>
<path stroke-linecap="butt" stroke="#ffffff" opacity="1" stroke-width="1" d="M620.057+984.169L639.326+913.215" stroke-linejoin="miter" fill="none"/>
<path stroke-linejoin="miter" opacity="1" stroke-linecap="butt" d="M737.913+879.764L639.28+913.404" stroke="#ffffff" stroke-width="1" fill="none"/>
<path stroke-linecap="butt" fill="none" stroke-width="1" stroke="#ffffff" d="M737.793+879.727L777.042+930.457" stroke-linejoin="miter" opacity="1"/>
<path stroke-linejoin="miter" d="M640.312+910.03L675.286+742.091" opacity="1" stroke-width="1" stroke="#ffffff" stroke-linecap="butt" fill="#ffffff"/>
<path d="M737.812+879.871L755.124+785.237" stroke-linejoin="miter" stroke="#ffffff" stroke-linecap="butt" fill="none" opacity="1" stroke-width="1"/>
<path stroke="#ffffff" stroke-width="1" d="M755.172+785.393L682.696+740.847" stroke-linecap="butt" stroke-linejoin="miter" fill="none" opacity="1"/>
<path stroke-linejoin="miter" stroke-width="1" d="M542.713+820.05L682.972+740.806" stroke="#ffffff" opacity="1" stroke-linecap="butt" fill="none"/>
<path stroke-linecap="butt" opacity="1" stroke-width="1" d="M682.763+741.124L671.799+637.499" stroke="#ffffff" stroke-linejoin="miter" fill="none"/>
<path d="M822.837+764.609L737.762+879.891" stroke-linecap="butt" fill="none" stroke-width="1" stroke="#ffffff" stroke-linejoin="miter" opacity="1"/>
<path fill="none" stroke="#ffffff" stroke-width="1" opacity="1" d="M894.75+881.853L737.692+879.795" stroke-linecap="butt" stroke-linejoin="miter"/>
<path fill="none" opacity="1" stroke-linecap="butt" stroke-width="1" d="M872.688+983.85L895.176+886.502" stroke-linejoin="miter" stroke="#ffffff"/>
<path opacity="1" stroke-linejoin="miter" stroke-linecap="butt" d="M872.688+983.85L895.176+886.502" fill="none" stroke-width="1" stroke="#ffffff"/>
<path opacity="1" d="M991.254+918.272L899.346+881.183" stroke="#ffffff" stroke-linecap="butt" stroke-width="1" stroke-linejoin="miter" fill="none"/>
<path opacity="1" d="M1020.18+814.609L939.083+766.077" stroke="#ffffff" stroke-width="1" stroke-linecap="butt" stroke-linejoin="miter" fill="none"/>
<path stroke-linejoin="miter" stroke-width="1" d="M931.653+766.94L850.752+746.072" fill="none" stroke-linecap="butt" opacity="1" stroke="#ffffff"/>
<path d="M899.558+881.425L837.418+764.143" stroke="#ffffff" stroke-linecap="butt" opacity="1" stroke-width="1" fill="none" stroke-linejoin="miter"/>
<path stroke-linecap="butt" stroke="#ffffff" stroke-width="1" fill="none" stroke-linejoin="miter" opacity="1" d="M812.261+757.684L750.754+785.819"/>
<path stroke-width="1" stroke-linejoin="miter" stroke="#ffffff" opacity="1" d="M798.027+724.527L682.186+736.842" stroke-linecap="butt" fill="none"/>
<path fill="none" stroke-linecap="butt" stroke-width="1" stroke="#ffffff" stroke-linejoin="miter" opacity="1" d="M794.056+720.683L815.943+682.455"/>
<path stroke-linejoin="miter" stroke-width="1" opacity="1" stroke-linecap="butt" stroke="#ffffff" d="M899.487+881.418L935.15+769.125" fill="none"/>
<path stroke-linecap="butt" stroke="#ffffff" fill="none" stroke-width="1" stroke-linejoin="miter" opacity="1" d="M737.873+879.923L675.198+742.069"/>
<path fill="none" d="M560.418+617.357L597.231+723.407" opacity="1" stroke="#ffffff" stroke-linecap="butt" stroke-width="1" stroke-linejoin="miter"/>
<path fill="none" opacity="1" stroke-width="1" stroke-linejoin="miter" d="M547.22+611.521L462.238+673.429" stroke-linecap="butt" stroke="#ffffff"/>
<path stroke-linejoin="miter" d="M597.231+723.407L462.238+673.429" stroke-linecap="butt" stroke-width="1" fill="none" opacity="1" stroke="#ffffff"/>
<path stroke="#ffffff" fill="none" d="M459.347+821.016L537.019+829.186" stroke-linecap="butt" stroke-linejoin="miter" opacity="1" stroke-width="1"/>
<path stroke-width="1" fill="none" d="M450.347+805.815L493.766+744.226" opacity="1" stroke-linecap="butt" stroke-linejoin="miter" stroke="#ffffff"/>
<path stroke-linecap="butt" d="M375.857+738.459L493.764+744.226" opacity="1" fill="none" stroke-width="1" stroke="#ffffff" stroke-linejoin="miter"/>
<path fill="none" stroke-linecap="butt" stroke-linejoin="miter" d="M315.303+805.154L422.767+822.887" stroke-width="1" stroke="#ffffff" opacity="1"/>
<path opacity="1" stroke-width="1" fill="none" stroke-linecap="butt" d="M372.477+904.039L432.989+838.458" stroke-linejoin="miter" stroke="#ffffff"/>
<path stroke-linecap="butt" stroke-linejoin="miter" opacity="1" stroke-width="1" d="M787.442+722.566L671.977+637.439" stroke="#ffffff" fill="none"/>
<path opacity="1" fill="none" stroke-width="1" stroke="#ffffff" stroke-linejoin="miter" d="M795.184+714.675L805.634+770.706" stroke-linecap="butt"/>
<path stroke-linecap="butt" stroke-linejoin="miter" fill="none" stroke="#ffffff" d="M795.383+725.279L845.96+744.288" opacity="1" stroke-width="1"/>
</g>
</g>
<g opacity="1">
<g opacity="1">
<g opacity="1">
<path d="M64.8528+125.113C64.8528+114.799+73.2698+106.438+83.6527+106.438C94.0355+106.438+102.453+114.799+102.453+125.113C102.453+135.427+94.0355+143.788+83.6527+143.788C73.2698+143.788+64.8528+135.427+64.8528+125.113Z" fill="#ffffff" opacity="1"/>
<path fill="none" stroke-linejoin="miter" d="M72.1614+125.113C72.1614+118.809+77.3062+113.698+83.6527+113.698C89.9991+113.698+95.1439+118.809+95.1439+125.113C95.1439+131.417+89.9991+136.528+83.6527+136.528C77.3062+136.528+72.1614+131.417+72.1614+125.113Z" stroke-linecap="butt" stroke-width="6.99999" opacity="1" stroke="#ffffff"/>
</g>
<g opacity="1">
<path fill="#ffffff" d="M193.994+224.938C193.994+219.782+198.202+215.601+203.393+215.601C208.584+215.601+212.792+219.782+212.792+224.938C212.792+230.094+208.584+234.274+203.393+234.274C198.202+234.274+193.994+230.094+193.994+224.938Z" opacity="1"/>
<path stroke-linejoin="miter" stroke="#ffffff" stroke-width="6.99999" opacity="1" fill="none" stroke-linecap="butt" d="M201.303+224.938C201.303+223.791+202.239+222.862+203.393+222.862C204.548+222.862+205.483+223.791+205.483+224.938C205.483+226.085+204.548+227.014+203.393+227.014C202.239+227.014+201.303+226.085+201.303+224.938Z"/>
</g>
<g opacity="1">
<path d="M235.962+95.4757C235.962+90.3193+240.17+86.1393+245.361+86.1393C250.552+86.1393+254.76+90.3193+254.76+95.4757C254.76+100.632+250.552+104.812+245.361+104.812C240.17+104.812+235.962+100.632+235.962+95.4757Z" fill="#ffffff" opacity="1"/>
<path stroke-linecap="butt" stroke-linejoin="miter" stroke-width="6.99999" fill="none" opacity="1" stroke="#ffffff" d="M243.271+95.4757C243.271+94.329+244.207+93.3994+245.361+93.3994C246.515+93.3994+247.451+94.329+247.451+95.4757C247.451+96.6225+246.515+97.5521+245.361+97.5521C244.207+97.5521+243.271+96.6225+243.271+95.4757Z"/>
</g>
<g opacity="1">
<path fill="#ffffff" d="M86.0281+348.277C86.0281+343.12+90.2361+338.94+95.427+338.94C100.618+338.94+104.826+343.12+104.826+348.277C104.826+353.433+100.618+357.613+95.427+357.613C90.2361+357.613+86.0281+353.433+86.0281+348.277Z" opacity="1"/>
<path fill="none" d="M93.3367+348.277C93.3367+347.13+94.2725+346.201+95.427+346.201C96.5814+346.201+97.5172+347.13+97.5172+348.277C97.5172+349.424+96.5814+350.353+95.427+350.353C94.2725+350.353+93.3367+349.424+93.3367+348.277Z" stroke="#ffffff" stroke-linecap="butt" stroke-linejoin="miter" stroke-width="6.99999" opacity="1"/>
</g>
<g opacity="1">
<path opacity="1" fill="#ffffff" d="M304.908+313.81C304.908+303.496+313.325+295.135+323.708+295.135C334.091+295.135+342.508+303.496+342.508+313.81C342.508+324.123+334.091+332.485+323.708+332.485C313.325+332.485+304.908+324.123+304.908+313.81Z"/>
<path stroke-width="6.99999" fill="none" stroke="#ffffff" opacity="1" stroke-linecap="butt" stroke-linejoin="miter" d="M312.216+313.81C312.216+307.505+317.361+302.395+323.708+302.395C330.054+302.395+335.199+307.505+335.199+313.81C335.199+320.114+330.054+325.225+323.708+325.225C317.361+325.225+312.216+320.114+312.216+313.81Z"/>
</g>
<g opacity="1">
<path fill="#ffffff" d="M176.672+390.29C176.672+379.976+185.089+371.615+195.472+371.615C205.854+371.615+214.271+379.976+214.271+390.29C214.271+400.604+205.854+408.965+195.472+408.965C185.089+408.965+176.672+400.604+176.672+390.29Z" opacity="1"/>
<path stroke-width="6.99999" opacity="1" d="M183.98+390.29C183.98+383.986+189.125+378.875+195.472+378.875C201.818+378.875+206.963+383.986+206.963+390.29C206.963+396.594+201.818+401.705+195.472+401.705C189.125+401.705+183.98+396.594+183.98+390.29Z" stroke-linejoin="miter" stroke="#ffffff" fill="none" stroke-linecap="butt"/>
</g>
<g opacity="1">
<path opacity="1" fill="#ffffff" d="M305.591+157.058C305.591+146.744+314.008+138.383+324.391+138.383C334.774+138.383+343.191+146.744+343.191+157.058C343.191+167.372+334.774+175.733+324.391+175.733C314.008+175.733+305.591+167.372+305.591+157.058Z"/>
<path opacity="1" stroke-width="6.99999" d="M312.9+157.058C312.9+150.754+318.045+145.643+324.391+145.643C330.738+145.643+335.883+150.754+335.883+157.058C335.883+163.363+330.738+168.473+324.391+168.473C318.045+168.473+312.9+163.363+312.9+157.058Z" stroke-linejoin="miter" stroke="#ffffff" fill="none" stroke-linecap="butt"/>
</g>
<g opacity="1">
<path d="M140.155+37.7022C140.155+27.3883+148.572+19.0272+158.955+19.0272C169.338+19.0272+177.755+27.3883+177.755+37.7022C177.755+48.0162+169.338+56.3773+158.955+56.3773C148.572+56.3773+140.155+48.0162+140.155+37.7022Z" opacity="1" fill="#ffffff"/>
<path opacity="1" stroke="#ffffff" d="M147.464+37.7022C147.464+31.3979+152.609+26.2873+158.955+26.2873C165.302+26.2873+170.446+31.3979+170.446+37.7022C170.446+44.0065+165.302+49.1172+158.955+49.1172C152.609+49.1172+147.464+44.0065+147.464+37.7022Z" stroke-width="6.99999" stroke-linecap="butt" fill="none" stroke-linejoin="miter"/>
</g>
<g opacity="1">
<g opacity="1">
<path opacity="1" fill="#ffffff" d="M272.351+33.7066C272.351+24.9793+279.473+17.9045+288.259+17.9045C297.044+17.9045+304.166+24.9793+304.166+33.7066C304.166+42.4338+297.044+49.5087+288.259+49.5087C279.473+49.5087+272.351+42.4338+272.351+33.7066Z"/>
<path stroke-linecap="butt" stroke-width="2" opacity="1" stroke="#ffffff" fill="none" stroke-linejoin="miter" d="M274.439+33.7066C274.439+26.1249+280.626+19.9788+288.259+19.9788C295.891+19.9788+302.078+26.1249+302.078+33.7066C302.078+41.2882+295.891+47.4344+288.259+47.4344C280.626+47.4344+274.439+41.2882+274.439+33.7066Z"/>
</g>
<g opacity="1">
<path opacity="1" fill="#ffffff" d="M277.413+34.0297C277.413+27.8812+282.43+22.8968+288.62+22.8968C294.809+22.8968+299.827+27.8812+299.827+34.0297C299.827+40.1782+294.809+45.1625+288.62+45.1625C282.43+45.1625+277.413+40.1782+277.413+34.0297Z"/>
<path opacity="1" stroke-linejoin="miter" stroke="#ffffff" stroke-width="6.99999" d="M284.721+34.0297C284.721+31.8908+286.467+30.1569+288.62+30.1569C290.773+30.1569+292.519+31.8908+292.519+34.0297C292.519+36.1685+290.773+37.9024+288.62+37.9024C286.467+37.9024+284.721+36.1685+284.721+34.0297Z" fill="none" stroke-linecap="butt"/>
</g>
</g>
<g opacity="1">
<g opacity="1">
<path opacity="1" fill="#ffffff" d="M34.4153+248.45C34.4153+241.112+40.4043+235.162+47.7922+235.162C55.18+235.162+61.169+241.112+61.169+248.45C61.169+255.789+55.18+261.738+47.7922+261.738C40.4043+261.738+34.4153+255.789+34.4153+248.45Z"/>
<path d="M36.5035+248.45C36.5035+242.257+41.5576+237.237+47.7922+237.237C54.0268+237.237+59.0809+242.257+59.0809+248.45C59.0809+254.644+54.0268+259.664+47.7922+259.664C41.5576+259.664+36.5035+254.644+36.5035+248.45Z" stroke-linejoin="miter" stroke-linecap="butt" stroke="#ffffff" opacity="1" stroke-width="2" fill="none"/>
</g>
<g opacity="1">
<path fill="#ffffff" d="M38.03+247.802C38.03+242.844+42.0762+238.825+47.0676+238.825C52.0589+238.825+56.1052+242.844+56.1052+247.802C56.1052+252.761+52.0589+256.78+47.0676+256.78C42.0762+256.78+38.03+252.761+38.03+247.802Z" opacity="1"/>
<path opacity="1" stroke-linejoin="miter" fill="none" stroke-width="6.99999" d="M45.3386+247.802C45.3386+246.854+46.1127+246.085+47.0676+246.085C48.0225+246.085+48.7966+246.854+48.7966+247.802C48.7966+248.751+48.0225+249.52+47.0676+249.52C46.1127+249.52+45.3386+248.751+45.3386+247.802Z" stroke="#ffffff" stroke-linecap="butt"/>
</g>
</g>
<g opacity="1">
<g opacity="1">
<path opacity="1" d="M32.0258+444.281C32.0258+433.174+41.0897+424.171+52.2706+424.171C63.4516+424.171+72.5155+433.174+72.5155+444.281C72.5155+455.388+63.4516+464.392+52.2706+464.392C41.0897+464.392+32.0258+455.388+32.0258+444.281Z" fill="#ffffff"/>
<path stroke-linejoin="miter" opacity="1" fill="none" stroke-width="2" stroke-linecap="butt" d="M34.1139+444.281C34.1139+434.32+42.243+426.245+52.2706+426.245C62.2983+426.245+70.4273+434.32+70.4273+444.281C70.4273+454.242+62.2983+462.317+52.2706+462.317C42.243+462.317+34.1139+454.242+34.1139+444.281Z" stroke="#ffffff"/>
</g>
<g opacity="1">
<path d="M37.1235+443.671C37.1235+436.134+43.2743+430.024+50.8616+430.024C58.449+430.024+64.5997+436.134+64.5997+443.671C64.5997+451.208+58.449+457.318+50.8616+457.318C43.2743+457.318+37.1235+451.208+37.1235+443.671Z" opacity="1" fill="#ffffff"/>
<path d="M44.4321+443.671C44.4321+440.143+47.3107+437.284+50.8616+437.284C54.4125+437.284+57.2911+440.143+57.2911+443.671C57.2911+447.198+54.4125+450.057+50.8616+450.057C47.3107+450.057+44.4321+447.198+44.4321+443.671Z" stroke-linejoin="miter" stroke="#ffffff" stroke-linecap="butt" stroke-width="6.99999" opacity="1" fill="none"/>
</g>
</g>
<g opacity="1">
<g opacity="1">
<path fill="#ffffff" opacity="1" d="M199.183+295.971C199.183+284.865+208.247+275.861+219.428+275.861C230.608+275.861+239.672+284.865+239.672+295.971C239.672+307.078+230.608+316.082+219.428+316.082C208.247+316.082+199.183+307.078+199.183+295.971Z"/>
<path stroke="#ffffff" fill="none" stroke-linecap="butt" d="M201.271+295.971C201.271+286.01+209.4+277.935+219.428+277.935C229.455+277.935+237.584+286.01+237.584+295.971C237.584+305.932+229.455+314.007+219.428+314.007C209.4+314.007+201.271+305.932+201.271+295.971Z" opacity="1" stroke-width="2" stroke-linejoin="miter"/>
</g>
<g opacity="1">
<path fill="#ffffff" opacity="1" d="M204.967+295.325C204.967+287.788+211.118+281.678+218.705+281.678C226.292+281.678+232.443+287.788+232.443+295.325C232.443+302.862+226.292+308.972+218.705+308.972C211.118+308.972+204.967+302.862+204.967+295.325Z"/>
<path d="M212.276+295.325C212.276+291.798+215.154+288.938+218.705+288.938C222.256+288.938+225.135+291.798+225.135+295.325C225.135+298.852+222.256+301.712+218.705+301.712C215.154+301.712+212.276+298.852+212.276+295.325Z" opacity="1" stroke="#ffffff" fill="none" stroke-linecap="butt" stroke-width="6.99999" stroke-linejoin="miter"/>
</g>
</g>
<g opacity="1">
<g opacity="1">
<path d="M-19.284+98.6223C-19.284+87.5156-10.2201+78.5118+0.960877+78.5118C12.1418+78.5118+21.2058+87.5156+21.2058+98.6223C21.2058+109.729+12.1418+118.733+0.960877+118.733C-10.2201+118.733-19.284+109.729-19.284+98.6223Z" fill="#ffffff" opacity="1"/>
<path stroke-width="2" d="M-17.1958+98.6223C-17.1958+88.6612-9.06679+80.5861+0.960877+80.5861C10.9885+80.5861+19.1176+88.6612+19.1176+98.6223C19.1176+108.583+10.9885+116.658+0.960877+116.658C-9.06679+116.658-17.1958+108.583-17.1958+98.6223Z" stroke-linejoin="miter" opacity="1" stroke="#ffffff" fill="none" stroke-linecap="butt"/>
</g>
<g opacity="1">
<path d="M-13.4997+97.9761C-13.4997+90.4391-7.34898+84.3292+0.23837+84.3292C7.82572+84.3292+13.9765+90.4391+13.9765+97.9761C13.9765+105.513+7.82572+111.623+0.23837+111.623C-7.34898+111.623-13.4997+105.513-13.4997+97.9761Z" opacity="1" fill="#ffffff"/>
<path stroke-linejoin="miter" d="M-6.19113+97.9761C-6.19113+94.4487-3.31254+91.5893+0.23837+91.5893C3.78928+91.5893+6.66786+94.4487+6.66786+97.9761C6.66786+101.503+3.78928+104.363+0.23837+104.363C-3.31254+104.363-6.19113+101.503-6.19113+97.9761Z" stroke-linecap="butt" stroke-width="6.99999" opacity="1" fill="none" stroke="#ffffff"/>
</g>
</g>
<g opacity="1">
<g opacity="1">
<path opacity="1" fill="#ffffff" d="M287.679+449.156C287.679+438.049+296.743+429.045+307.924+429.045C319.104+429.045+328.168+438.049+328.168+449.156C328.168+460.263+319.104+469.266+307.924+469.266C296.743+469.266+287.679+460.263+287.679+449.156Z"/>
<path stroke-width="2" stroke="#ffffff" stroke-linecap="butt" stroke-linejoin="miter" d="M289.767+449.156C289.767+439.195+297.896+431.12+307.924+431.12C317.951+431.12+326.08+439.195+326.08+449.156C326.08+459.117+317.951+467.192+307.924+467.192C297.896+467.192+289.767+459.117+289.767+449.156Z" opacity="1" fill="none"/>
</g>
<g opacity="1">
<path fill="#ffffff" opacity="1" d="M293.463+448.51C293.463+440.973+299.614+434.863+307.201+434.863C314.788+434.863+320.939+440.973+320.939+448.51C320.939+456.047+314.788+462.157+307.201+462.157C299.614+462.157+293.463+456.047+293.463+448.51Z"/>
<path opacity="1" stroke-linejoin="miter" fill="none" stroke="#ffffff" d="M300.771+448.51C300.771+444.982+303.65+442.123+307.201+442.123C310.752+442.123+313.63+444.982+313.63+448.51C313.63+452.037+310.752+454.896+307.201+454.896C303.65+454.896+300.771+452.037+300.771+448.51Z" stroke-width="6.99999" stroke-linecap="butt"/>
</g>
</g>
<g opacity="1">
<g opacity="1">
<path d="M54.6772+19.7947C54.6772+11.8613+61.1514+5.43007+69.1378+5.43007C77.1242+5.43007+83.5984+11.8613+83.5984+19.7947C83.5984+27.7281+77.1242+34.1593+69.1378+34.1593C61.1514+34.1593+54.6772+27.7281+54.6772+19.7947Z" opacity="1" fill="#ffffff"/>
<path stroke-linejoin="miter" stroke-width="2" stroke-linecap="butt" fill="none" stroke="#ffffff" d="M56.7654+19.7947C56.7654+13.0069+62.3047+7.50439+69.1378+7.50439C75.9709+7.50439+81.5102+13.0069+81.5102+19.7947C81.5102+26.5824+75.9709+32.085+69.1378+32.085C62.3047+32.085+56.7654+26.5824+56.7654+19.7947Z" opacity="1"/>
</g>
<g opacity="1">
<path opacity="1" d="M59.0164+19.7966C59.0164+14.2426+63.5488+9.74029+69.1399+9.74029C74.7309+9.74029+79.2634+14.2426+79.2634+19.7966C79.2634+25.3505+74.7309+29.8528+69.1399+29.8528C63.5488+29.8528+59.0164+25.3505+59.0164+19.7966Z" fill="#ffffff"/>
<path d="M66.325+19.7966C66.325+18.2523+67.5853+17.0004+69.1399+17.0004C70.6945+17.0004+71.9548+18.2523+71.9548+19.7966C71.9548+21.3408+70.6945+22.5927+69.1399+22.5927C67.5853+22.5927+66.325+21.3408+66.325+19.7966Z" stroke-width="6.99999" stroke-linecap="butt" fill="none" stroke="#ffffff" opacity="1" stroke-linejoin="miter"/>
</g>
</g>
<g opacity="1">
<path fill="#ffffff" d="M215.88+164.295C215.88+155.767+222.839+148.854+231.424+148.854C240.009+148.854+246.969+155.767+246.969+164.295C246.969+172.823+240.009+179.736+231.424+179.736C222.839+179.736+215.88+172.823+215.88+164.295Z" opacity="1"/>
<path stroke="#ffffff" d="M223.188+164.295C223.188+159.776+226.876+156.114+231.424+156.114C235.973+156.114+239.66+159.776+239.66+164.295C239.66+168.813+235.973+172.476+231.424+172.476C226.876+172.476+223.188+168.813+223.188+164.295Z" fill="none" stroke-linecap="butt" stroke-linejoin="miter" opacity="1" stroke-width="6.99999"/>
</g>
<g opacity="1">
<path fill="#ffffff" d="M-8.66453+321.751C-8.66453+313.223-1.70507+306.31+6.87986+306.31C15.4648+306.31+22.4242+313.223+22.4242+321.751C22.4242+330.279+15.4648+337.192+6.87986+337.192C-1.70507+337.192-8.66453+330.279-8.66453+321.751Z" opacity="1"/>
<path stroke-linecap="butt" fill="none" stroke-linejoin="miter" d="M-1.35591+321.751C-1.35591+317.233+2.33137+313.57+6.87986+313.57C11.4283+313.57+15.1156+317.233+15.1156+321.751C15.1156+326.27+11.4283+329.932+6.87986+329.932C2.33137+329.932-1.35591+326.27-1.35591+321.751Z" stroke-width="6.99999" opacity="1" stroke="#ffffff"/>
</g>
<g opacity="1">
<path d="M87.9765+207.908C87.9765+199.38+94.9359+192.467+103.521+192.467C112.106+192.467+119.065+199.38+119.065+207.908C119.065+216.436+112.106+223.349+103.521+223.349C94.9359+223.349+87.9765+216.436+87.9765+207.908Z" fill="#ffffff" opacity="1"/>
<path d="M95.2851+207.908C95.2851+203.389+98.9724+199.727+103.521+199.727C108.069+199.727+111.757+203.389+111.757+207.908C111.757+212.426+108.069+216.089+103.521+216.089C98.9724+216.089+95.2851+212.426+95.2851+207.908Z" fill="none" opacity="1" stroke="#ffffff" stroke-linecap="butt" stroke-width="6.99999" stroke-linejoin="miter"/>
</g>
<g opacity="1">
<path fill="#ffffff" opacity="1" d="M259.874+379.24C259.874+373.885+264.244+369.545+269.635+369.545C275.025+369.545+279.395+373.885+279.395+379.24C279.395+384.594+275.025+388.935+269.635+388.935C264.244+388.935+259.874+384.594+259.874+379.24Z"/>
<path fill="none" stroke-linejoin="miter" d="M267.183+379.24C267.183+377.895+268.281+376.805+269.635+376.805C270.988+376.805+272.086+377.895+272.086+379.24C272.086+380.585+270.988+381.675+269.635+381.675C268.281+381.675+267.183+380.585+267.183+379.24Z" stroke-width="6.99999" stroke="#ffffff" opacity="1" stroke-linecap="butt"/>
</g>
<g opacity="1">
<path opacity="1" fill="#ffffff" d="M137.279+457.841C137.279+452.684+141.487+448.504+146.677+448.504C151.868+448.504+156.076+452.684+156.076+457.841C156.076+462.997+151.868+467.177+146.677+467.177C141.487+467.177+137.279+462.997+137.279+457.841Z"/>
<path opacity="1" stroke="#ffffff" d="M144.587+457.841C144.587+456.694+145.523+455.764+146.677+455.764C147.832+455.764+148.768+456.694+148.768+457.841C148.768+458.987+147.832+459.917+146.677+459.917C145.523+459.917+144.587+458.987+144.587+457.841Z" stroke-width="6.99999" fill="none" stroke-linecap="butt" stroke-linejoin="miter"/>
</g>
<g opacity="1">
<path d="M225.096+7.07738C225.096+1.92098+229.304-2.25911+234.495-2.25911C239.685-2.25911+243.893+1.92098+243.893+7.07738C243.893+12.2338+239.685+16.4139+234.495+16.4139C229.304+16.4139+225.096+12.2338+225.096+7.07738Z" opacity="1" fill="#ffffff"/>
<path stroke-linejoin="miter" fill="none" stroke-linecap="butt" stroke-width="6.99999" stroke="#ffffff" opacity="1" d="M232.404+7.07738C232.404+5.93062+233.34+5.00099+234.495+5.00099C235.649+5.00099+236.585+5.93062+236.585+7.07738C236.585+8.22413+235.649+9.15376+234.495+9.15376C233.34+9.15376+232.404+8.22413+232.404+7.07738Z"/>
</g>
<g opacity="1">
<g opacity="1">
<path d="M339.894+214.75C339.894+207.411+345.883+201.462+353.271+201.462C360.659+201.462+366.648+207.411+366.648+214.75C366.648+222.089+360.659+228.038+353.271+228.038C345.883+228.038+339.894+222.089+339.894+214.75Z" opacity="1" fill="#ffffff"/>
<path opacity="1" d="M341.982+214.75C341.982+208.557+347.036+203.536+353.271+203.536C359.505+203.536+364.56+208.557+364.56+214.75C364.56+220.943+359.505+225.964+353.271+225.964C347.036+225.964+341.982+220.943+341.982+214.75Z" stroke="#ffffff" fill="none" stroke-width="2" stroke-linecap="butt" stroke-linejoin="miter"/>
</g>
<g opacity="1">
<path opacity="1" fill="#ffffff" d="M343.509+214.102C343.509+209.144+347.555+205.124+352.546+205.124C357.538+205.124+361.584+209.144+361.584+214.102C361.584+219.06+357.538+223.08+352.546+223.08C347.555+223.08+343.509+219.06+343.509+214.102Z"/>
<path d="M350.817+214.102C350.817+213.153+351.591+212.384+352.546+212.384C353.501+212.384+354.275+213.153+354.275+214.102C354.275+215.051+353.501+215.82+352.546+215.82C351.591+215.82+350.817+215.051+350.817+214.102Z" stroke-linejoin="miter" fill="none" opacity="1" stroke="#ffffff" stroke-width="6.99999" stroke-linecap="butt"/>
</g>
</g>
</g>
<g opacity="1">
<g opacity="1">
<path opacity="1" d="M407.908+366.72C407.908+358.192+414.867+351.279+423.452+351.279C432.037+351.279+438.996+358.192+438.996+366.72C438.996+375.248+432.037+382.161+423.452+382.161C414.867+382.161+407.908+375.248+407.908+366.72Z" fill="#ffffff"/>
<path d="M415.216+366.72C415.216+362.202+418.903+358.539+423.452+358.539C428+358.539+431.688+362.202+431.688+366.72C431.688+371.239+428+374.901+423.452+374.901C418.903+374.901+415.216+371.239+415.216+366.72Z" stroke-width="6.99999" stroke-linecap="butt" stroke-linejoin="miter" opacity="1" stroke="#ffffff" fill="none"/>
</g>
<path opacity="1" d="M82.536+24.4333L144.158+36.2552" stroke-linecap="butt" stroke-linejoin="miter" stroke-width="0.999999" fill="none" stroke="#ffffff"/>
<path stroke-width="0.999999" stroke-linejoin="miter" fill="none" opacity="1" stroke="#ffffff" stroke-linecap="butt" d="M230.258+10.1657L176.298+35.9908"/>
<path stroke-linejoin="miter" stroke-width="0.999999" stroke-linecap="butt" stroke="#ffffff" fill="none" d="M241.212+92.2647L166.046+47.7981" opacity="1"/>
<path fill="none" stroke-linejoin="miter" opacity="1" stroke-width="0.999999" d="M249.699+91.8228L280.905+46.9836" stroke="#ffffff" stroke-linecap="butt"/>
<path opacity="1" stroke-linecap="butt" stroke="#ffffff" fill="none" stroke-width="0.999999" d="M228.71+169.009L243.963+99.6377" stroke-linejoin="miter"/>
<path d="M322.404+152.387L251.932+98.282" fill="none" stroke-linejoin="miter" stroke-width="0.999999" stroke-linecap="butt" opacity="1" stroke="#ffffff"/>
<path opacity="1" stroke-width="0.999999" stroke="#ffffff" d="M79.7337+123.69L155.025+45.0852" fill="none" stroke-linecap="butt" stroke-linejoin="miter"/>
<path d="M18.6362+103.854L79.7355+123.688" fill="none" stroke-linecap="butt" stroke="#ffffff" stroke-linejoin="miter" opacity="1" stroke-width="0.999999"/>
<path stroke-width="0.999999" stroke="#ffffff" fill="none" d="M104.632+210.228L79.7336+123.688" stroke-linejoin="miter" stroke-linecap="butt" opacity="1"/>
<path fill="none" stroke-width="0.999999" d="M104.634+210.229L58.5388+241.752" opacity="1" stroke="#ffffff" stroke-linecap="butt" stroke-linejoin="miter"/>
<path stroke="#ffffff" d="M82.7401+124.71L227.837+162.487" fill="#ffffff" stroke-linejoin="miter" opacity="1" stroke-linecap="butt" stroke-width="0.999999"/>
<path fill="none" stroke-linecap="butt" opacity="1" stroke="#ffffff" d="M104.634+210.229L186.507+229.452" stroke-linejoin="miter" stroke-width="0.999999"/>
<path fill="none" stroke="#ffffff" d="M204.277+224.649L228.71+169.009" opacity="1" stroke-width="0.999999" stroke-linejoin="miter" stroke-linecap="butt"/>
<path fill="none" d="M165.873+44.5204L228.712+169.011" stroke-width="0.999999" stroke-linejoin="miter" opacity="1" stroke-linecap="butt" stroke="#ffffff"/>
<path fill="none" stroke="#ffffff" opacity="1" d="M228.71+169.009L319.72+164.27" stroke-linecap="butt" stroke-width="0.999999" stroke-linejoin="miter"/>
<path opacity="1" stroke="#ffffff" stroke-linejoin="miter" d="M317.158+312.832L204.217+225.462" stroke-width="0.999999" fill="#ffffff" stroke-linecap="butt"/>
<path stroke="#ffffff" stroke-linejoin="miter" d="M201.459+288.796L104.634+210.229" opacity="1" fill="none" stroke-linecap="butt" stroke-width="0.999999"/>
<path stroke-linecap="butt" stroke-linejoin="miter" fill="none" d="M95.6944+345.502L104.632+210.229" opacity="1" stroke-width="0.999999" stroke="#ffffff"/>
<path stroke-width="0.999999" stroke-linejoin="miter" fill="none" d="M7.44562+321.916L91.4503+345.725" stroke="#ffffff" stroke-linecap="butt" opacity="1"/>
<path stroke-linejoin="miter" stroke-linecap="butt" opacity="1" stroke-width="0.999999" fill="none" stroke="#ffffff" d="M7.44562+321.916L91.4503+345.725"/>
<path stroke-linejoin="miter" stroke-linecap="butt" d="M59.3441+427.246L95.9188+349.718" stroke-width="0.999999" opacity="1" fill="none" stroke="#ffffff"/>
<path stroke="#ffffff" fill="none" opacity="1" d="M148.857+456.875L194.934+389.185" stroke-width="0.999999" stroke-linecap="butt" stroke-linejoin="miter"/>
<path stroke-linecap="butt" stroke-width="0.999999" fill="none" stroke-linejoin="miter" stroke="#ffffff" opacity="1" d="M194.59+382.628L216.495+313.848"/>
<path stroke-width="0.999999" opacity="1" fill="none" stroke="#ffffff" stroke-linecap="butt" stroke-linejoin="miter" d="M95.9168+349.718L201.182+301.493"/>
<path stroke-linejoin="miter" opacity="1" d="M270.857+376.306L227.761+312.321" fill="none" stroke-width="0.999999" stroke-linecap="butt" stroke="#ffffff"/>
<path fill="none" stroke-linejoin="miter" d="M208.087+279.997L186.309+225.705" stroke-linecap="butt" stroke-width="0.999999" opacity="1" stroke="#ffffff"/>
<path stroke="#ffffff" stroke-linecap="butt" fill="none" stroke-width="0.999999" opacity="1" stroke-linejoin="miter" d="M270.859+376.306L299.833+434.175"/>
<path stroke-width="0.999999" stroke-linecap="butt" stroke="#ffffff" fill="none" opacity="1" d="M327.531+312.294L232.482+168.813" stroke-linejoin="miter"/>
<path opacity="1" d="M324.454+316.682L270.982+378.65" fill="none" stroke-width="0.999999" stroke="#ffffff" stroke-linejoin="miter" stroke-linecap="butt"/>
<path stroke-width="0.999999" stroke-linecap="butt" d="M324.454+316.682L349.962+226.577" fill="none" stroke="#ffffff" opacity="1" stroke-linejoin="miter"/>
<path stroke-width="0.999999" d="M95.9168+349.718L192.379+385.559" stroke-linecap="butt" stroke-linejoin="miter" opacity="1" fill="none" stroke="#ffffff"/>
<path stroke-width="0.999999" stroke-linejoin="miter" fill="none" stroke="#ffffff" d="M198.708+388.989L266.886+381.682" stroke-linecap="butt" opacity="1"/>
<path stroke-linecap="butt" d="M104.634+210.229L227.894+162.476" stroke-linejoin="miter" fill="none" stroke="#ffffff" opacity="1" stroke-width="0.999999"/>
<path stroke="#ffffff" opacity="1" stroke-linecap="butt" stroke-width="0.999999" fill="none" d="M237.022+299.627L324.602+319.491" stroke-linejoin="miter"/>
<g opacity="1">
<path opacity="1" fill="#ffffff" d="M544.992+526.735C544.992+518.207+551.952+511.294+560.537+511.294C569.122+511.294+576.081+518.207+576.081+526.735C576.081+535.263+569.122+542.176+560.537+542.176C551.952+542.176+544.992+535.263+544.992+526.735Z"/>
<path stroke-linecap="butt" d="M552.301+526.735C552.301+522.217+555.988+518.554+560.537+518.554C565.085+518.554+568.773+522.217+568.773+526.735C568.773+531.253+565.085+534.916+560.537+534.916C555.988+534.916+552.301+531.253+552.301+526.735Z" opacity="1" stroke-width="6.99999" stroke-linejoin="miter" fill="none" stroke="#ffffff"/>
</g>
</g>
</g>
</g>
</g>
<g vectornator:layerName="Ebene 1" id="Ebene 1">
<path stroke="#d75040" opacity="0.985111" stroke-linejoin="miter" fill="none" d="M68.7411+458.269C68.7411+369.903+140.375+298.269+228.741+298.269C317.107+298.269+388.741+369.903+388.741+458.269C388.741+546.634+317.107+618.269+228.741+618.269C140.375+618.269+68.7411+546.634+68.7411+458.269Z" stroke-linecap="butt" stroke-width="59.3604"/>
<path stroke="#ffb700" stroke-linecap="butt" d="M525+794C525+705.634+596.634+634+685+634C773.366+634+845+705.634+845+794C845+882.366+773.366+954+685+954C596.634+954+525+882.366+525+794Z" opacity="0.985111" stroke-width="59.3604" fill="none" stroke-linejoin="miter"/>
<path stroke-linecap="butt" stroke-linejoin="miter" d="M609.242+252.047C609.242+163.682+680.876+92.0472+769.242+92.0472C857.607+92.0472+929.242+163.682+929.242+252.047C929.242+340.413+857.607+412.047+769.242+412.047C680.876+412.047+609.242+340.413+609.242+252.047Z" stroke-width="59.3604" fill="none" opacity="0.985111" stroke="#4e0126"/>
<path d="M351.146+561.439L364.563+539.136C365.07+538.294+367.537+539.191+370.074+541.139L543.553+674.356C546.09+676.304+547.736+678.567+547.23+679.409L533.813+701.712C533.306+702.554+530.839+701.657+528.302+699.709L354.823+566.492C352.286+564.544+350.64+562.281+351.146+561.439Z" fill="url(#LinearGradient)" opacity="1"/>
<path d="M586.879+275.593L599.236+298.5C599.703+299.365+597.674+301.031+594.706+302.222L391.696+383.64C388.727+384.831+385.942+385.095+385.475+384.23L373.118+361.323C372.651+360.458+374.68+358.791+377.649+357.601L580.658+276.182C583.627+274.992+586.412+274.728+586.879+275.593Z" opacity="1" fill="url(#LinearGradient_2)"/>
</g>
</svg>
